<svg id="Camada_1" data-name="Camada 1" xmlns="http://www.w3.org/2000/svg" viewBox="0 0 31.07 34.8"><defs><style>.cls-1{fill:#fff;}.cls-2{fill:none;stroke:#fff;stroke-linecap:round;stroke-linejoin:round;}</style></defs><title>Logo 2</title><path class="cls-1" d="M78.31,69a13.2,13.2,0,0,1,1.86-.51v.43a11.69,11.69,0,0,0-1.61.48c-1.08.42-1.2.88-1.2,1.23,0,.63.42.89,1,.89s.66-.16,1.42-.7l.24-.18.16.25-.34.35c-.72.72-1.13,1-1.86,1a1.46,1.46,0,0,1-1.61-1.49C76.34,70.14,76.7,69.6,78.31,69Zm1.38,2V68.32c0-1.17-.34-1.46-1.13-1.46a2.74,2.74,0,0,0-1.08.21L78,66.7l-.31,1c-.11.35-.29.54-.61.54a.48.48,0,0,1-.54-.48,2.16,2.16,0,0,1,2.31-1.47c1.24,0,1.84.56,1.84,2.07v2.55c0,.54.16.73.44.73a.61.61,0,0,0,.47-.27l.24.27a1.14,1.14,0,0,1-1,.61A1.09,1.09,0,0,1,79.69,71.06Z" transform="translate(-74.51 -66.32)"/><path class="cls-1" d="M100.24,69.22c0,1.51.81,2.34,1.93,2.34a1.93,1.93,0,0,0,1.68-.94l.29.15a2.15,2.15,0,0,1-2.22,1.54c-1.64,0-2.67-1.15-2.67-3a2.81,2.81,0,0,1,2.74-3,2,2,0,0,1,2.11,1.55.49.49,0,0,1-.54.44.61.61,0,0,1-.63-.54l-.3-1.06.55.45a2.46,2.46,0,0,0-1.15-.3C101,66.86,100.24,67.69,100.24,69.22Z" transform="translate(-74.51 -66.32)"/><path class="cls-1" d="M87.37,81.74v-.67H93v.67Zm0,2.4v-.68H93v.68Z" transform="translate(-74.51 -66.32)"/><path class="cls-1" d="M76.15,100.54l1.29-.24-.39.66c0-.54,0-1.78,0-2.52V93.16l-1-.12v-.42l1.8-.54.16.1,0,1.7v2.31l0,.15V100l-.12,1.07L76.15,101Zm5-2.38c0-1.54-.63-2.38-1.54-2.38-.44,0-1,.19-1.9,1.07l-.11-.22a2.79,2.79,0,0,1,2.29-1.51c1.27,0,2.28,1.09,2.28,2.94s-1,3-2.46,3c-.73,0-1.47-.32-2.11-1.57l.11-.19a2.44,2.44,0,0,0,1.84,1.11C80.37,100.46,81.11,99.71,81.11,98.16Z" transform="translate(-74.51 -66.32)"/><path class="cls-1" d="M99.91,100.41l1.13.2V101H98.63v-.42l1-.2ZM100,96l-1.25-.2v-.46h2.64v.46l-1.14.2Zm-1,5,2.52-3.09.41.27L99.66,101Zm1.27-5.69,1.69,2.44,2.28,3.25h-1.1l-1.78-2.55-2.14-3.14Zm4.11,0-2.49,3-.4-.31,2.14-2.73Zm-1,5,1.32.24V101h-2.89v-.42l1.32-.24ZM103.27,96l-1-.19v-.46h2.25v.46l-1,.19Z" transform="translate(-74.51 -66.32)"/><path class="cls-2" d="M75,82.49h9.9" transform="translate(-74.51 -66.32)"/><path class="cls-2" d="M95,82.45h10.08" transform="translate(-74.51 -66.32)"/></svg>